<svg xmlns="http://www.w3.org/2000/svg" width="149.947" height="149.947" viewBox="0 0 149.947 149.947">
  <g id="Group_3005" data-name="Group 3005" transform="translate(1201.466 76.804)">
    <g id="Group_3002" data-name="Group 3002" transform="translate(-1181.083 -57.199)" opacity="0.16">
      <path id="Path_1021" data-name="Path 1021" d="M-1025.06,149.334a54.051,54.051,0,0,1-21.172-4.276,54.2,54.2,0,0,1-17.287-11.654,54.206,54.206,0,0,1-11.654-17.287,54.052,54.052,0,0,1-4.276-21.172,54.05,54.05,0,0,1,4.276-21.172,54.21,54.21,0,0,1,11.654-17.287,54.205,54.205,0,0,1,17.287-11.654,54.051,54.051,0,0,1,21.172-4.276,54.053,54.053,0,0,1,21.172,4.276A54.206,54.206,0,0,1-986.6,56.485a54.207,54.207,0,0,1,11.654,17.287,54.051,54.051,0,0,1,4.276,21.172,54.053,54.053,0,0,1-4.276,21.172A54.2,54.2,0,0,1-986.6,133.4a54.2,54.2,0,0,1-17.287,11.654A54.053,54.053,0,0,1-1025.06,149.334Zm0-101.085a46.749,46.749,0,0,0-46.7,46.7,46.749,46.749,0,0,0,46.7,46.7,46.749,46.749,0,0,0,46.7-46.7A46.749,46.749,0,0,0-1025.06,48.248Z" transform="translate(1079.449 -40.555)" fill="#fff"/>
    </g>
    <path id="Path_1022" data-name="Path 1022" d="M-999.974,42.952a57.606,57.606,0,0,0-18.37-12.385,57.438,57.438,0,0,0-22.5-4.543,57.438,57.438,0,0,0-22.5,4.543,57.6,57.6,0,0,0-18.37,12.385,57.6,57.6,0,0,0-12.385,18.37,57.439,57.439,0,0,0-4.543,22.5,57.439,57.439,0,0,0,4.543,22.5,57.6,57.6,0,0,0,12.385,18.371,57.607,57.607,0,0,0,18.37,12.385,57.44,57.44,0,0,0,22.5,4.543,57.441,57.441,0,0,0,22.5-4.543,57.608,57.608,0,0,0,18.37-12.385,57.607,57.607,0,0,0,12.385-18.37,57.441,57.441,0,0,0,4.543-22.5,57.441,57.441,0,0,0-4.543-22.5A57.606,57.606,0,0,0-999.974,42.952Zm-40.868,92.817a52.008,52.008,0,0,1-51.949-51.949,52.008,52.008,0,0,1,51.949-51.949A52.008,52.008,0,0,1-988.893,83.82,52.008,52.008,0,0,1-1040.842,135.769Z" transform="translate(-85.65 -85.65)" fill="#fff"/>
    <path id="Path_1023" data-name="Path 1023" d="M-878.857,216.333v48.643a1.8,1.8,0,0,0,2.509,1.834l46.672-24.473a2.146,2.146,0,0,0-.008-3.671l-46.672-24.171A1.8,1.8,0,0,0-878.857,216.333Z" transform="translate(-268.717 -242.485)" fill="#fff"/>
    <g id="Group_3003" data-name="Group 3003" transform="translate(-1193.031 -63.974)">
      <path id="Path_1024" data-name="Path 1024" d="M-1005.857,62.143q0-2.764-.267-5.462h4.31a61.56,61.56,0,0,0-4.65-18.729A61.935,61.935,0,0,0-1019.78,18.2a61.934,61.934,0,0,0-19.752-13.316A61.762,61.762,0,0,0-1063.722,0a61.762,61.762,0,0,0-24.19,4.885,61.877,61.877,0,0,0-12.289,6.943l3.123,3.123a56.137,56.137,0,0,0-23.693,40.338h-4.722a63.03,63.03,0,0,0-.372,6.854,61.761,61.761,0,0,0,4.885,24.19,61.937,61.937,0,0,0,13.316,19.752,61.933,61.933,0,0,0,19.752,13.316,61.762,61.762,0,0,0,24.19,4.885,61.762,61.762,0,0,0,24.19-4.885,61.935,61.935,0,0,0,19.752-13.316,62.393,62.393,0,0,0,7.2-8.63l-3.32-3.32A55.789,55.789,0,0,0-1005.857,62.143Zm-57.865,53.353a53.413,53.413,0,0,1-53.353-53.353A53.413,53.413,0,0,1-1063.722,8.79a53.413,53.413,0,0,1,53.353,53.353A53.413,53.413,0,0,1-1063.722,115.5Z" transform="translate(1130.059)" fill="#fff"/>
      <path id="Path_1025" data-name="Path 1025" d="M-1128.575,59.623a62.532,62.532,0,0,1,7.462-6.374l-3.521-3.52a65.8,65.8,0,0,0-7.434,6.4,65.133,65.133,0,0,0-14,20.771,64.75,64.75,0,0,0-4.9,19.81h4.566a61.551,61.551,0,0,1,4.513-17.336A61.938,61.938,0,0,1-1128.575,59.623Z" transform="translate(1150.97 -41.422)" fill="#fff"/>
      <path id="Path_1026" data-name="Path 1026" d="M-431.973,339.3h-4.976q.235,2.711.235,5.462a61.76,61.76,0,0,1-4.885,24.19,61.9,61.9,0,0,1-6.115,11.122l3.326,3.326a65.054,65.054,0,0,0,7.5-13.2,64.948,64.948,0,0,0,5.137-25.439Q-431.748,342.017-431.973,339.3Z" transform="translate(565.194 -282.623)" fill="#fff"/>
    </g>
    <g id="Group_3004" data-name="Group 3004" transform="translate(-1201.466 -76.804)" opacity="0.4">
      <path id="Path_1027" data-name="Path 1027" d="M-1057.413,27.354a74.509,74.509,0,0,0,5.894-29.185,74.509,74.509,0,0,0-5.894-29.185,74.721,74.721,0,0,0-16.065-23.83,74.722,74.722,0,0,0-23.829-16.065,74.512,74.512,0,0,0-29.185-5.894,74.512,74.512,0,0,0-29.185,5.894,74.725,74.725,0,0,0-23.83,16.065,74.725,74.725,0,0,0-16.065,23.83,74.511,74.511,0,0,0-5.894,29.185,74.511,74.511,0,0,0,5.894,29.185,74.724,74.724,0,0,0,16.065,23.83,74.725,74.725,0,0,0,23.83,16.065,74.512,74.512,0,0,0,29.185,5.894,74.512,74.512,0,0,0,29.185-5.894,74.722,74.722,0,0,0,23.829-16.065A74.72,74.72,0,0,0-1057.413,27.354Zm-41,37.279a71.686,71.686,0,0,1-28.079,5.67,71.683,71.683,0,0,1-28.078-5.67A71.892,71.892,0,0,1-1177.5,49.176a71.9,71.9,0,0,1-15.458-22.928,71.69,71.69,0,0,1-5.67-28.079,71.689,71.689,0,0,1,5.67-28.079A71.9,71.9,0,0,1-1177.5-52.837a71.892,71.892,0,0,1,22.928-15.458,71.685,71.685,0,0,1,28.079-5.67,71.684,71.684,0,0,1,28.078,5.67,71.889,71.889,0,0,1,22.928,15.458,71.894,71.894,0,0,1,15.458,22.928,71.686,71.686,0,0,1,5.67,28.079,71.688,71.688,0,0,1-5.67,28.079,71.9,71.9,0,0,1-15.458,22.928A71.9,71.9,0,0,1-1098.414,64.634Z" transform="translate(1201.466 76.804)" fill="#fff"/>
      <path id="Path_1028" data-name="Path 1028" d="M-1087.774-30.319a67.284,67.284,0,0,0-67.208,67.208,67.284,67.284,0,0,0,67.208,67.208,67.284,67.284,0,0,0,67.208-67.208A67.284,67.284,0,0,0-1087.774-30.319Zm0,131.577a64.441,64.441,0,0,1-64.368-64.368,64.441,64.441,0,0,1,64.368-64.368,64.441,64.441,0,0,1,64.368,64.368A64.441,64.441,0,0,1-1087.774,101.258Z" transform="translate(1162.747 38.084)" fill="#fff"/>
    </g>
  </g>
</svg>
